Coordinates
version=1
nRows=7
nColumns=42
inDegrees=yes

Units are S.I. units (second, meters, Newtons, ...)
If the header above contains a line with 'inDegrees', this indicates whether rotational values are in degrees (yes) or radians (no).

endheader
time	pelvis_tilt	pelvis_list	pelvis_rotation	pelvis_tx	pelvis_ty	pelvis_tz	hip_flexion_r	hip_adduction_r	hip_rotation_r	knee_angle_r	knee_adduction_r	knee_angle_r_beta	ankle_angle_r	subtalar_angle_r	mtp_angle_r	hip_flexion_l	hip_adduction_l	hip_rotation_l	knee_angle_l	knee_adduction_l	knee_angle_l_beta	ankle_angle_l	subtalar_angle_l	mtp_angle_l	lumbar_extension	lumbar_bending	lumbar_rotation	arm_flex_r	arm_add_r	arm_rot_r	elbow_flex_r	pro_sup_r	wrist_flex_r	wrist_dev_r	arm_flex_l	arm_add_l	arm_rot_l	elbow_flex_l	pro_sup_l	wrist_flex_l	wrist_dev_l
      0.54000000	      3.80381252	      7.83900650	     90.61752597	      0.48690485	      0.95053863	     -0.63816661	    -27.43929684	      3.57603664	     -8.19311394	      7.42292681	      5.96791786	      0.12955451	      9.81023308	     12.71178987	    -15.82709644	     17.48430841	     -5.22338547	     -7.52073984	      0.99554003	      5.46256159	      0.01737545	      7.03691613	      3.18881773	    -12.18123986	    -20.44978052	      8.00896879	      3.30649684	     17.56451252	    -22.77520256	     -4.66435307	     57.34108699	     90.00000001	      0.00000000	      0.00000000	     -9.21087030	     -6.62589258	     -0.61608681	     28.30782266	     90.00000001	      0.00000000	      0.00000000
      0.55000000	      3.29404567	      8.01928515	     90.55987683	      0.48523300	      0.94875337	     -0.63934289	    -28.04748474	      2.71262092	     -9.09606281	      8.58365676	      5.96791786	      0.14981307	      9.85379569	     14.26093233	    -18.01425176	     17.42289888	     -4.44648752	     -6.03411278	      1.47351082	      5.46256159	      0.02571762	      5.57238619	     -0.82458197	    -12.49683351	    -20.57759293	      7.52342077	      3.29843117	     17.52122106	    -22.93948934	     -4.83212041	     57.56101960	     90.00000001	      0.00000000	      0.00000000	     -9.39514932	     -6.67764378	     -0.60236978	     28.36049152	     90.00000001	      0.00000000	      0.00000000
      0.56000000	      2.81880686	      7.94800760	     90.65714160	      0.48375434	      0.94670860	     -0.64086065	    -28.35023448	      2.01156011	     -9.66463057	      9.73164871	      5.96791786	      0.16984931	      9.35966385	     14.75358350	    -20.26181165	     18.05010143	     -3.64782560	     -5.12859046	      3.37646365	      5.46256159	      0.05893041	      4.79057431	     -3.90428446	    -13.46395232	    -20.36620553	      7.07264759	      3.07783210	     17.37007804	    -22.92929550	     -5.06339801	     57.68821042	     90.00000001	      0.00000000	      0.00000000	     -9.62734057	     -6.83232543	     -0.42439650	     28.37019799	     90.00000001	      0.00000000	      0.00000000
      0.57000000	      2.25082070	      8.30343036	     90.52300888	      0.48285787	      0.94538472	     -0.64260002	    -29.14880533	      1.20069246	     -9.59211125	     10.76479656	      5.96791786	      0.18788114	      9.00081821	     14.50453627	    -20.67898992	     18.23082944	     -2.86525766	     -5.13007110	      6.05270530	      5.46256159	      0.10563964	      4.99516068	     -5.34257109	    -13.68173309	    -20.65935774	      6.40731369	      3.08212880	     17.20638675	    -22.85468529	     -5.26751697	     57.80432554	     90.00000001	      0.00000000	      0.00000000	     -9.76870622	     -7.00050056	     -0.43098985	     28.40229895	     90.00000001	      0.00000000	      0.00000000
      0.58000000	      1.92227915	      7.96028563	     90.54195694	      0.48127926	      0.94305444	     -0.64468857	    -28.91929456	      0.59739746	    -10.04771879	     12.36336785	      5.96791786	      0.21578148	      8.40333514	     14.88894206	    -22.86788857	     19.37334369	     -2.24667478	     -4.85099605	      9.39249946	      5.46256159	      0.16393004	      5.17594767	     -5.86042803	    -14.35058618	    -20.13877112	      6.09416772	      3.04658930	     16.63461488	    -22.83327998	     -5.89299434	     58.07645130	     90.00000001	      0.00000000	      0.00000000	    -10.02759524	     -7.16448750	     -0.20641788	     28.56629059	     90.00000001	      0.00000000	      0.00000000
      0.59000000	      1.28161206	      8.29194221	     90.33253521	      0.48027172	      0.94196895	     -0.64742404	    -29.59835545	     -0.35805353	    -10.11419856	     13.52963052	      5.96791786	      0.23613660	      7.50466021	     14.53303693	    -23.24850338	     19.21046647	     -1.38438193	     -5.05206923	     11.65111409	      5.46256159	      0.20335030	      4.53280242	     -6.53984876	    -14.34527353	    -20.32026081	      5.32372040	      3.13267644	     16.16120685	    -22.82968579	     -6.03431441	     58.07306170	     90.00000001	      0.00000000	      0.00000000	    -10.17091777	     -7.36103172	     -0.19875681	     28.55483343	     90.00000001	      0.00000000	      0.00000000
      0.60000000	      0.69252193	      8.28359425	     89.99858498	      0.47925958	      0.94042969	     -0.65053542	    -29.58630148	     -1.42510833	    -10.46708103	     15.31456544	      5.96791786	      0.26728959	      6.40701056	     14.88421817	    -25.97512451	     19.35066229	     -0.59239807	     -5.44711422	     13.60355219	      5.46256159	      0.23742678	      3.79150974	     -6.61563117	    -14.87325875	    -20.10740025	      4.58979355	      3.46181749	     15.30514714	    -22.70317951	     -6.82441070	     58.34114223	     90.00000001	      0.00000000	      0.00000000	    -10.40104155	     -7.57333715	      0.06201850	     28.80935875	     90.00000001	      0.00000000	      0.00000000
